# xmcd
#
# Track frame offsets:
#  150
#  14879
#  29353
#  45545
#  60801
#  81929
#  103962
#  119823
#  136797
#  162417
#  182673
#  202850
#
# Disc length: 2837 seconds
#
# Revision: 0
# Processed by: cddbd v1.4PL0 Copyright (c) Steve Scherf et al.
# Submitted via: AltoMP3_Maker 3.0
#
DISCID=a20b130c
DTITLE=Jeff Healey - See The Light
DYEAR=1900
DGENRE=
TTITLE0=Confidence Man
TTITLE1=My Little Girl 
TTITLE2=River of No Return
TTITLE3=Don't Let Your Chance Go By
TTITLE4=Angel Eyes 
TTITLE5=Nice Problem to Have 
TTITLE6=Someday, Someway
TTITLE7=I Need to Be Loved 
TTITLE8=Blue Jean Blues
TTITLE9=That's What They Say
TTITLE10=Hide Away 
TTITLE11=See the Light 
EXTD=
EXTT0=
EXTT1=
EXTT2=
EXTT3=
EXTT4=
EXTT5=
EXTT6=
EXTT7=
EXTT8=
EXTT9=
EXTT10=
EXTT11=
PLAYORDER=
